<?xml version="1.0" standalone="no"?>
<!DOCTYPE svg PUBLIC "-//W3C//DTD SVG 20010904//EN"
 "http://www.w3.org/TR/2001/REC-SVG-20010904/DTD/svg10.dtd">
<svg version="1.0" xmlns="http://www.w3.org/2000/svg"
 width="5000.000000pt" height="1777.000000pt" viewBox="0 0 5000.000000 1777.000000"
 preserveAspectRatio="xMidYMid meet">
<metadata>
Created by potrace 1.16, written by Peter Selinger 2001-2019
</metadata>
<g transform="translate(0.000000,1777.000000) scale(0.100000,-0.100000)"
fill="#000000" stroke="none">
<path d="M11673 16156 c-108 -21 -202 -54 -258 -91 -27 -18 -60 -35 -72 -39
-12 -4 -31 -18 -42 -32 -10 -13 -24 -24 -30 -24 -29 0 -271 -266 -271 -298 0
-7 -4 -12 -10 -12 -5 0 -10 -5 -10 -10 0 -6 -16 -36 -35 -66 -19 -30 -35 -61
-35 -69 0 -8 -4 -15 -10 -15 -5 0 -10 -7 -10 -15 0 -8 -4 -23 -9 -33 -22 -43
-43 -105 -67 -202 -14 -58 -30 -113 -35 -123 -29 -53 -33 -430 -5 -534 9 -35
23 -91 31 -125 19 -80 125 -290 172 -343 97 -110 160 -168 204 -187 16 -7 29
-16 29 -20 0 -5 7 -8 15 -8 8 0 15 -4 15 -10 0 -5 7 -10 15 -10 8 0 23 -4 33
-9 9 -6 53 -17 97 -27 44 -9 86 -21 93 -27 17 -14 231 -14 240 -1 4 6 41 18
82 27 101 24 235 92 315 159 120 101 315 328 315 367 0 12 20 52 31 61 7 6 33
56 47 90 5 14 19 48 30 75 19 46 38 124 73 300 6 33 14 67 17 75 10 27 12 244
2 285 -4 22 -18 94 -30 160 -24 130 -89 302 -135 357 -14 16 -25 33 -25 38 0
4 -25 35 -55 69 -30 34 -55 66 -55 71 0 6 -7 10 -15 10 -8 0 -26 13 -40 28
-14 16 -41 34 -60 42 -19 8 -35 17 -35 22 0 4 -7 8 -15 8 -7 0 -18 6 -22 13
-12 18 -50 37 -75 37 -13 0 -57 9 -98 20 -102 27 -209 32 -297 16z m213 -480
c240 -64 395 -306 394 -615 0 -75 -6 -112 -35 -239 -37 -160 -156 -345 -285
-446 -63 -49 -152 -96 -181 -96 -8 0 -20 -5 -26 -11 -17 -17 -163 -23 -224 -9
-247 57 -410 304 -409 619 0 75 6 112 35 239 37 160 156 345 285 446 63 49
152 96 181 96 8 0 19 4 25 9 23 22 167 27 240 7z"/>
<path d="M9495 15995 c-183 -46 -356 -214 -449 -435 -98 -232 -102 -558 -11
-805 69 -185 195 -351 313 -411 20 -11 39 -21 42 -24 55 -58 264 -87 405 -56
54 11 122 39 135 55 3 3 22 15 43 26 91 48 219 205 272 335 15 36 33 76 40 90
7 14 21 61 31 105 26 111 26 390 0 485 -43 159 -98 283 -166 375 -40 54 -138
155 -151 155 -4 0 -14 6 -21 13 -36 35 -126 79 -189 92 -84 18 -224 18 -294 0z
m237 -346 c137 -29 244 -135 307 -303 23 -65 26 -84 25 -216 0 -141 -1 -148
-33 -228 -164 -412 -597 -411 -750 2 -23 65 -26 84 -25 216 0 141 1 148 33
228 60 151 176 269 292 297 69 17 87 17 151 4z"/>
<path d="M7670 15713 c-43 -8 -171 -56 -183 -67 -7 -7 -33 -24 -59 -39 -26
-15 -67 -52 -90 -81 -145 -183 -185 -317 -175 -591 5 -113 11 -156 32 -225 61
-198 157 -359 291 -494 207 -206 540 -293 743 -193 122 60 269 234 310 367 11
36 27 90 37 120 10 32 19 102 22 166 4 96 1 127 -22 225 -34 143 -52 200 -86
269 -50 102 -117 210 -131 210 -4 0 -17 15 -28 33 -19 31 -76 91 -130 137 -44
37 -195 118 -261 140 -64 21 -217 34 -270 23z m292 -382 c41 -18 84 -40 96
-51 12 -11 24 -20 28 -20 10 0 102 -99 134 -146 26 -36 57 -100 88 -175 29
-72 36 -224 15 -319 -11 -52 -59 -135 -100 -177 -105 -104 -252 -127 -405 -64
-41 18 -84 40 -96 51 -12 11 -24 20 -28 20 -10 0 -102 99 -134 146 -26 36 -57
100 -88 175 -29 72 -36 224 -15 319 11 52 59 135 100 177 105 104 252 127 405
64z"/>
<path d="M6170 14714 c-31 -6 -143 -46 -150 -53 -7 -9 -42 -30 -65 -40 -32
-14 -129 -123 -163 -183 -94 -165 -117 -362 -66 -578 25 -110 107 -310 126
-310 4 0 8 -5 8 -10 0 -38 182 -249 260 -303 25 -17 47 -34 50 -37 11 -14 152
-92 192 -106 24 -8 77 -22 118 -31 147 -30 362 1 434 65 15 12 32 22 39 22 19
0 110 97 150 160 41 65 81 173 97 259 22 124 7 308 -35 408 -8 20 -15 43 -15
53 0 22 -71 164 -119 241 -69 110 -181 228 -281 298 -56 38 -197 109 -253 127
-51 15 -275 28 -327 18z m270 -330 c51 -10 156 -61 215 -104 101 -74 200 -213
236 -330 84 -272 -30 -503 -272 -550 -31 -6 -67 -9 -80 -7 -13 3 -44 8 -69 12
-187 30 -397 229 -461 435 -82 266 28 499 261 549 44 9 102 8 170 -5z"/>
<path d="M9265 13854 c-16 -2 -73 -9 -125 -15 -573 -63 -1155 -288 -1624 -628
-27 -19 -56 -36 -63 -37 -35 -5 -294 -258 -425 -414 -409 -488 -658 -1042
-760 -1690 -20 -129 -22 -182 -22 -475 -1 -377 12 -487 85 -774 40 -160 68
-227 215 -516 109 -216 260 -439 425 -628 38 -44 69 -85 69 -91 0 -5 11 -22
25 -36 13 -14 35 -46 48 -70 13 -25 54 -92 90 -150 83 -130 229 -422 298 -595
186 -468 303 -998 340 -1537 10 -141 10 -216 -1 -380 -16 -252 -9 -717 14
-903 119 -957 491 -1768 1066 -2318 328 -315 713 -523 1130 -613 116 -25 147
-27 429 -31 192 -3 338 -1 400 6 433 51 843 216 1200 484 109 82 361 328 443
432 136 174 271 395 342 560 42 97 63 145 107 243 16 35 35 87 43 115 8 29 32
111 53 182 l38 130 0 345 c0 376 -8 469 -66 766 -107 551 -334 1094 -665 1589
-133 200 -191 270 -370 447 -88 86 -195 194 -239 240 -44 46 -147 146 -229
223 -153 144 -278 282 -397 439 -38 50 -96 122 -129 160 -33 38 -84 104 -113
147 -30 43 -57 76 -60 73 -3 -3 -16 14 -28 38 -12 23 -20 43 -18 43 2 0 -17
41 -43 90 -187 364 -278 752 -279 1187 0 307 24 496 95 738 31 105 42 130 70
155 18 17 55 64 82 105 27 41 85 113 130 160 234 243 621 343 957 245 103 -29
270 -114 309 -156 15 -16 35 -29 44 -29 34 0 283 -232 349 -325 93 -131 262
-472 311 -627 10 -32 21 -58 24 -58 8 0 35 162 50 295 15 137 12 491 -5 639
-106 902 -604 1713 -1375 2235 -442 300 -933 486 -1495 567 -104 15 -672 29
-750 18z m739 -770 c518 -57 1043 -268 1443 -580 247 -193 531 -473 505 -498
-4 -4 -1 -6 7 -4 8 1 38 -26 67 -62 53 -65 141 -217 131 -227 -3 -3 -27 16
-53 41 -151 149 -337 249 -534 286 -113 22 -382 1 -540 -41 -105 -28 -280
-116 -380 -192 -369 -280 -614 -780 -722 -1472 -26 -167 -36 -587 -19 -772 24
-253 81 -523 158 -748 85 -246 236 -529 379 -707 30 -37 54 -71 54 -76 0 -5
18 -30 40 -55 22 -25 40 -50 40 -56 0 -6 31 -44 68 -83 37 -40 81 -91 97 -113
48 -66 190 -228 227 -260 19 -17 78 -66 131 -110 215 -178 633 -613 739 -768
170 -251 208 -312 270 -432 151 -296 249 -608 298 -960 12 -82 30 -185 41
-228 16 -62 20 -112 19 -250 0 -222 -11 -315 -65 -557 -13 -58 -29 -134 -36
-169 -18 -93 -62 -199 -89 -216 -6 -4 -21 -28 -34 -53 -92 -190 -245 -401
-406 -563 -302 -304 -665 -491 -1076 -554 -130 -20 -398 -20 -528 0 -414 63
-776 250 -1081 559 -138 140 -234 267 -346 457 -151 256 -216 401 -274 609
-14 52 -30 104 -35 115 -12 25 -46 282 -60 445 -11 127 -15 694 -5 710 9 14
-14 590 -31 773 -8 94 -23 232 -33 305 -9 73 -14 135 -10 138 9 5 7 24 -31
249 -16 94 -31 195 -34 225 -3 30 -23 106 -45 170 -22 63 -60 179 -85 258 -78
244 -189 503 -296 694 -29 50 -60 99 -69 107 -23 21 -141 204 -141 218 0 17
-48 98 -70 118 -11 10 -17 22 -14 26 3 5 -25 37 -62 71 -189 177 -368 446
-509 768 -107 244 -156 510 -156 855 0 393 80 732 255 1090 129 263 228 404
472 675 258 287 268 294 729 536 518 271 1093 375 1699 308z"/>
<path d="M20946 13439 c-778 -100 -1343 -603 -1565 -1392 -105 -373 -113 -876
-20 -1252 182 -733 656 -1226 1349 -1400 151 -38 311 -55 528 -55 444 0 772
94 1102 315 415 279 689 728 791 1300 21 116 24 161 24 420 0 317 -8 398 -66
627 -200 799 -776 1329 -1558 1433 -118 16 -472 18 -585 4z m504 -745 c196
-37 343 -116 485 -259 169 -171 268 -385 327 -705 31 -169 31 -534 0 -702 -98
-532 -385 -862 -819 -944 -120 -22 -395 -15 -498 14 -296 82 -516 281 -648
585 -80 185 -127 440 -127 688 0 569 187 996 529 1206 83 52 227 106 323 122
92 15 338 13 428 -5z"/>
<path d="M29366 13439 c-778 -100 -1343 -603 -1565 -1392 -105 -373 -113 -876
-20 -1252 182 -733 656 -1226 1349 -1400 151 -38 311 -55 528 -55 444 0 772
94 1102 315 415 279 689 728 791 1300 21 116 24 161 24 420 0 317 -8 398 -66
627 -200 799 -776 1329 -1558 1433 -118 16 -472 18 -585 4z m504 -745 c196
-37 343 -116 485 -259 169 -171 268 -385 327 -705 31 -169 31 -534 0 -702 -98
-532 -385 -862 -819 -944 -120 -22 -395 -15 -498 14 -296 82 -516 281 -648
585 -80 185 -127 440 -127 688 0 569 187 996 529 1206 83 52 227 106 323 122
92 15 338 13 428 -5z"/>
<path d="M36966 13439 c-778 -100 -1343 -603 -1565 -1392 -105 -373 -113 -876
-20 -1252 182 -733 656 -1226 1349 -1400 151 -38 311 -55 528 -55 444 0 772
94 1102 315 415 279 689 728 791 1300 21 116 24 161 24 420 0 317 -8 398 -66
627 -200 799 -776 1329 -1558 1433 -118 16 -472 18 -585 4z m504 -745 c196
-37 343 -116 485 -259 169 -171 268 -385 327 -705 31 -169 31 -534 0 -702 -98
-532 -385 -862 -819 -944 -120 -22 -395 -15 -498 14 -296 82 -516 281 -648
585 -80 185 -127 440 -127 688 0 569 187 996 529 1206 83 52 227 106 323 122
92 15 338 13 428 -5z"/>
<path d="M41276 13439 c-786 -106 -1343 -602 -1565 -1392 -105 -373 -113 -876
-20 -1252 126 -505 385 -893 768 -1146 316 -209 664 -309 1074 -309 239 0 407
33 605 118 154 67 323 193 437 330 l60 71 32 -167 c18 -92 38 -191 44 -219
l10 -53 280 0 279 0 0 1065 0 1065 -830 0 -830 0 0 -320 0 -320 436 0 435 0
-6 -47 c-62 -453 -313 -725 -723 -784 -121 -17 -396 -6 -487 19 -296 82 -516
281 -648 585 -182 421 -167 1079 34 1478 150 300 396 489 699 538 96 16 317
14 400 -4 244 -51 433 -193 538 -403 27 -54 57 -127 68 -164 l19 -68 417 0
c241 0 418 4 418 9 0 5 -9 60 -19 123 -95 554 -487 988 -1056 1171 -203 65
-301 80 -565 83 -129 1 -266 -2 -304 -7z"/>
<path d="M15760 11395 l0 -1965 440 0 440 0 0 705 0 705 538 0 c328 0 572 4
627 11 213 26 444 109 606 219 262 179 435 479 480 835 15 122 6 393 -16 495
-58 265 -163 462 -333 622 -185 174 -450 292 -737 327 -60 7 -421 11 -1067 11
l-978 0 0 -1965z m1800 1271 c236 -37 394 -148 459 -321 50 -132 50 -358 0
-490 -46 -124 -156 -229 -294 -280 -125 -47 -225 -56 -672 -62 l-413 -6 0 593
0 593 413 -6 c297 -4 439 -10 507 -21z"/>
<path d="M23770 11395 l0 -1965 948 0 c603 0 978 4 1032 11 649 80 1126 450
1357 1053 178 464 202 1155 59 1653 -175 608 -604 1022 -1203 1162 -214 50
-234 51 -1245 51 l-948 0 0 -1965z m1730 1215 c197 -29 395 -110 517 -209 119
-98 232 -273 286 -447 78 -248 105 -613 66 -894 -55 -398 -268 -706 -568 -823
-163 -63 -211 -68 -703 -74 l-448 -5 0 1237 0 1238 388 -6 c213 -3 421 -11
462 -17z"/>
<path d="M32190 11395 l0 -1965 1395 0 1395 0 0 365 0 365 -955 0 -955 0 0
1600 0 1600 -440 0 -440 0 0 -1965z"/>
<path d="M43990 11395 l0 -1965 440 0 440 0 0 1965 0 1965 -440 0 -440 0 0
-1965z"/>
<path d="M45640 11395 l0 -1965 1500 0 1500 0 0 365 0 365 -1060 0 -1060 0 0
480 0 480 950 0 950 0 0 335 0 335 -950 0 -950 0 0 420 0 420 1035 0 1035 0 0
365 0 365 -1475 0 -1475 0 0 -1965z"/>
<path d="M5274 12870 c-68 -12 -187 -74 -233 -120 -52 -53 -81 -87 -81 -96 0
-4 -6 -15 -13 -23 -8 -9 -25 -43 -38 -76 -21 -53 -24 -75 -24 -195 1 -177 24
-252 135 -428 43 -69 208 -238 256 -262 16 -8 43 -24 59 -36 17 -12 53 -29 80
-39 28 -10 54 -22 59 -27 6 -4 22 -8 36 -8 14 0 32 -6 38 -12 15 -15 256 -18
287 -4 11 5 22 10 25 10 66 13 186 89 231 147 124 160 149 346 79 564 -18 55
-36 102 -40 105 -4 3 -19 28 -33 55 -14 28 -36 63 -49 79 -53 67 -114 132
-152 164 -23 19 -51 43 -64 53 -13 11 -40 29 -60 40 -20 11 -44 24 -52 29 -13
8 -38 19 -115 50 -78 32 -239 46 -331 30z m316 -311 c228 -79 383 -372 290
-552 -51 -99 -132 -148 -244 -149 -333 -2 -583 426 -378 645 77 82 197 102
332 56z"/>
<path d="M31186 7049 c-778 -100 -1343 -603 -1565 -1392 -105 -373 -113 -876
-20 -1252 182 -733 656 -1226 1349 -1400 151 -38 311 -55 528 -55 444 0 772
94 1102 315 415 279 689 728 791 1300 21 116 24 161 24 420 0 317 -8 398 -66
627 -200 799 -776 1329 -1558 1433 -118 16 -472 18 -585 4z m504 -745 c196
-37 343 -116 485 -259 169 -171 268 -385 327 -705 31 -169 31 -534 0 -702 -98
-532 -385 -862 -819 -944 -120 -22 -395 -15 -498 14 -296 82 -516 281 -648
585 -80 185 -127 440 -127 688 0 569 187 996 529 1206 83 52 227 106 323 122
92 15 338 13 428 -5z"/>
<path d="M15760 5005 l0 -1965 410 0 410 0 2 1376 3 1375 480 -1376 480 -1375
340 2 340 3 480 1389 480 1389 3 -1391 2 -1392 405 0 405 0 0 1965 0 1965
-612 -2 -612 -3 -431 -1337 c-236 -735 -432 -1339 -435 -1342 -3 -2 -210 599
-461 1337 l-456 1342 -617 3 -616 2 0 -1965z"/>
<path d="M20780 5005 l0 -1965 410 0 410 0 2 1376 3 1375 480 -1376 480 -1375
340 2 340 3 480 1389 480 1389 3 -1391 2 -1392 405 0 405 0 0 1965 0 1965
-612 -2 -612 -3 -431 -1337 c-236 -735 -432 -1339 -435 -1342 -3 -2 -210 599
-461 1337 l-456 1342 -617 3 -616 2 0 -1965z"/>
<path d="M25800 5005 l0 -1965 1048 0 c1098 0 1117 1 1314 45 305 69 555 212
714 408 80 100 164 267 196 392 21 81 23 112 22 300 0 194 -2 217 -26 307 -87
321 -283 540 -585 654 l-85 31 66 37 c155 87 296 227 362 361 75 152 104 342
84 548 -48 503 -352 770 -952 836 -63 7 -457 11 -1128 11 l-1030 0 0 -1965z
m1895 1272 c149 -32 244 -87 305 -179 22 -33 45 -79 52 -101 17 -56 16 -239 0
-304 -33 -126 -140 -230 -281 -273 -103 -32 -224 -39 -673 -40 l-418 0 0 461
0 461 473 -5 c362 -4 488 -9 542 -20z m134 -1516 c207 -53 323 -156 377 -336
26 -86 26 -299 0 -375 -53 -156 -170 -258 -351 -305 -100 -26 -280 -35 -737
-35 l-438 0 0 541 0 541 533 -5 c502 -4 537 -6 616 -26z"/>
<path d="M33970 3465 l0 -425 435 0 435 0 0 425 0 425 -435 0 -435 0 0 -425z"/>
</g>
</svg>
